<?xml version="1.0" standalone="no"?>
<!DOCTYPE svg PUBLIC "-//W3C//DTD SVG 20010904//EN"
 "http://www.w3.org/TR/2001/REC-SVG-20010904/DTD/svg10.dtd">
<svg version="1.0" xmlns="http://www.w3.org/2000/svg"
 width="500.000000pt" height="500.000000pt" viewBox="0 0 500.000000 500.000000"
 preserveAspectRatio="xMidYMid meet">

<g transform="translate(0.000000,500.000000) scale(0.100000,-0.100000)"
fill="#000000" stroke="none">
<path d="M500 2928 c-52 -15 -90 -46 -111 -92 -23 -52 -23 -90 0 -142 25 -54
69 -80 180 -104 50 -10 100 -24 110 -30 58 -30 68 -110 22 -162 -24 -27 -36
-32 -88 -36 -113 -8 -177 35 -189 128 -6 49 -7 50 -40 50 -33 0 -34 -1 -34
-40 0 -87 59 -168 143 -196 74 -24 184 -15 236 19 55 36 75 78 76 154 0 47 -5
68 -21 90 -30 41 -91 71 -177 87 -123 24 -157 49 -157 119 0 80 111 121 208
77 45 -20 72 -63 72 -115 0 -22 4 -25 35 -25 34 0 35 1 35 40 0 135 -147 222
-300 178z"/>
<path d="M3281 2914 c-26 -33 -26 -45 -3 -74 35 -43 112 -15 112 41 0 27 -35
59 -64 59 -15 0 -33 -11 -45 -26z"/>
<path d="M2700 2835 l0 -95 -70 0 -70 0 0 -30 0 -30 70 0 70 0 0 -164 c0 -150
2 -165 21 -190 19 -25 25 -26 110 -26 l89 0 0 30 0 30 -63 0 c-36 0 -68 5 -75
12 -8 8 -12 58 -12 160 l0 148 85 0 85 0 0 30 0 29 -82 3 -83 3 -3 93 -3 92
-34 0 -35 0 0 -95z"/>
<path d="M3837 2910 c-23 -18 -26 -29 -29 -93 l-3 -72 -67 -3 c-68 -3 -68 -3
-68 -32 l0 -30 70 0 70 0 0 -190 0 -190 35 0 35 0 0 190 0 190 90 0 90 0 0 30
0 30 -90 0 -90 0 0 60 0 60 85 0 85 0 0 35 0 35 -94 0 c-79 0 -97 -3 -119 -20z"/>
<path d="M1584 2766 c-126 -57 -179 -213 -115 -336 l22 -43 -93 -94 c-87 -87
-91 -94 -76 -110 16 -15 23 -11 111 76 l95 93 43 -23 c56 -30 156 -32 210 -6
95 47 144 134 137 241 -5 77 -37 132 -107 181 -37 26 -52 30 -119 33 -50 1
-88 -3 -108 -12z m136 -46 c0 -5 7 -7 15 -4 20 8 87 -36 101 -67 30 -63 37
-107 25 -152 -12 -41 -14 -43 -44 -39 -18 3 -35 10 -39 16 -5 7 -8 5 -8 -5 0
-8 -13 -28 -30 -44 -27 -26 -28 -30 -15 -45 14 -16 13 -18 -16 -24 -32 -6
-115 10 -124 25 -3 4 5 15 19 24 23 16 24 17 9 55 -10 24 -24 42 -37 46 -12 3
-28 8 -37 10 -11 3 -19 -4 -24 -18 -6 -22 -7 -22 -16 7 -15 46 -3 81 40 125
21 21 36 41 33 44 -7 8 19 37 43 46 28 12 105 12 105 0z"/>
<path d="M1683 2670 c-41 -18 -41 -19 -36 -62 3 -23 6 -44 7 -45 1 -1 23 -3
50 -5 47 -3 50 -1 69 30 l20 34 -34 34 -34 33 -42 -19z"/>
<path d="M1085 2751 c-111 -27 -175 -113 -175 -233 1 -142 89 -228 235 -228
89 1 163 51 195 134 13 34 12 34 -27 42 -28 5 -32 2 -49 -32 -27 -54 -64 -78
-122 -78 -55 0 -104 24 -136 67 -30 41 -30 153 0 194 73 99 206 98 254 -3 20
-39 25 -43 48 -38 42 10 43 13 26 52 -23 56 -72 101 -128 117 -53 16 -74 17
-121 6z"/>
<path d="M2030 2573 c0 -155 2 -171 23 -207 12 -21 38 -47 57 -57 69 -37 173
-16 207 42 24 40 33 36 33 -11 0 -39 1 -40 35 -40 l35 0 0 220 0 220 -34 0
-34 0 -4 -142 c-4 -155 -14 -192 -64 -224 -31 -21 -102 -24 -136 -5 -42 22
-50 55 -56 219 l-5 152 -28 0 -29 0 0 -167z"/>
<path d="M3150 2710 l0 -30 70 0 70 0 0 -160 0 -160 -75 0 -75 0 0 -30 0 -30
185 0 185 0 0 30 0 29 -72 3 -73 3 -3 188 -2 187 -105 0 -105 0 0 -30z"/>
<path d="M4222 2578 c3 -139 6 -169 23 -202 32 -63 65 -81 146 -81 70 0 71 0
110 43 22 23 42 42 44 42 8 0 5 -164 -3 -177 -5 -8 -47 -13 -127 -15 l-120 -3
-3 -32 -3 -33 139 0 c123 0 143 2 163 19 l24 19 3 291 3 291 -34 0 -34 0 -5
-143 c-4 -125 -7 -148 -26 -178 -33 -55 -88 -76 -150 -59 -68 18 -76 41 -80
223 l-4 157 -35 0 -35 0 4 -162z"/>
</g>
</svg>
