<?xml version="1.0" standalone="no"?>
<!DOCTYPE svg PUBLIC "-//W3C//DTD SVG 20010904//EN"
 "http://www.w3.org/TR/2001/REC-SVG-20010904/DTD/svg10.dtd">
<svg version="1.0" xmlns="http://www.w3.org/2000/svg"
 width="500.000000pt" height="500.000000pt" viewBox="0 0 500.000000 500.000000"
 preserveAspectRatio="xMidYMid meet">

<g transform="translate(0.000000,500.000000) scale(0.100000,-0.100000)"
fill="#000000" stroke="none">
<path d="M2689 4350 c-89 -10 -255 -51 -344 -85 -501 -188 -862 -621 -961
-1150 -28 -146 -25 -392 4 -542 42 -211 135 -431 249 -591 l55 -75 -551 -551
c-304 -305 -555 -564 -561 -579 -47 -127 66 -255 192 -218 37 11 116 85 593
562 303 302 553 549 556 549 3 0 49 -29 103 -65 261 -175 528 -255 845 -255
236 0 431 43 637 140 760 357 1081 1258 719 2015 -203 423 -593 727 -1060 825
-114 24 -355 34 -476 20z m290 -330 c71 -13 116 -36 130 -66 6 -14 11 -63 11
-110 0 -108 -6 -115 -171 -173 -68 -24 -167 -66 -219 -93 l-96 -50 -98 31
c-83 27 -252 54 -306 49 -44 -4 -50 1 -50 43 0 69 37 175 68 197 174 123 538
209 731 172z m387 -104 c167 -79 307 -189 417 -327 92 -115 117 -165 124 -250
7 -83 14 -80 -95 -34 -48 20 -85 27 -165 31 -56 3 -114 10 -128 15 -14 6 -47
39 -73 74 -63 86 -173 203 -240 255 l-56 42 0 113 c0 61 3 115 8 119 17 19
133 -2 208 -38z m-963 -351 c47 -8 111 -24 142 -36 71 -26 80 -45 95 -204 6
-66 18 -151 26 -190 9 -38 18 -88 21 -111 l5 -41 -119 -119 c-66 -65 -150
-156 -187 -201 -54 -66 -73 -83 -94 -83 -52 0 -374 87 -393 107 -34 33 -62
177 -84 428 l-7 70 95 125 c112 147 189 229 237 253 44 21 148 22 263 2z
m1393 -275 c71 -31 111 -65 144 -123 34 -58 83 -202 99 -289 14 -78 -2 -210
-36 -294 -30 -77 -107 -196 -152 -239 -36 -34 -35 -34 -251 -16 -86 7 -117 13
-126 26 -6 9 -17 53 -24 98 -15 104 -49 208 -106 320 -24 49 -44 100 -44 113
0 14 19 53 42 87 24 34 70 116 103 182 79 157 95 169 217 162 57 -4 104 -13
134 -27z m-2028 -113 c6 -7 18 -77 26 -156 18 -154 26 -201 57 -300 l19 -65
-24 -85 c-14 -47 -28 -104 -32 -126 -12 -71 -20 -71 -47 4 -51 138 -69 258
-65 436 3 105 11 185 22 233 18 73 25 82 44 59z m1239 -257 c130 -23 243 -46
251 -52 21 -18 106 -193 130 -268 25 -78 42 -169 42 -226 0 -37 -7 -52 -48
-101 -76 -91 -305 -313 -329 -319 -30 -8 -224 22 -338 51 -130 34 -200 67
-218 102 -8 15 -47 117 -87 225 -52 142 -71 204 -66 222 8 32 153 201 274 319
74 72 95 87 121 87 17 0 138 -18 268 -40z m947 -521 c-28 -68 -114 -222 -120
-216 -2 2 -1 27 3 56 5 43 14 62 50 104 25 29 54 69 66 89 32 54 32 39 1 -33z
m-1328 -393 c62 -22 161 -46 255 -62 85 -14 164 -32 177 -40 12 -8 34 -34 48
-57 15 -23 42 -61 60 -84 l34 -41 -72 -18 c-46 -11 -129 -19 -223 -22 -170 -4
-288 14 -438 68 -94 35 -239 110 -244 127 -3 7 22 25 54 42 32 16 92 52 133
81 48 32 82 49 95 46 11 -2 66 -21 121 -40z"/>
</g>
</svg>
