<?xml version="1.0" standalone="no"?>
<!DOCTYPE svg PUBLIC "-//W3C//DTD SVG 20010904//EN"
 "http://www.w3.org/TR/2001/REC-SVG-20010904/DTD/svg10.dtd">
<svg version="1.0" xmlns="http://www.w3.org/2000/svg"
 width="500.000000pt" height="500.000000pt" viewBox="0 0 500.000000 500.000000"
 preserveAspectRatio="xMidYMid meet">

<g transform="translate(0.000000,500.000000) scale(0.100000,-0.100000)"
fill="#000000" stroke="none">
<path d="M2728 4349 c-268 -23 -563 -139 -785 -311 -90 -69 -257 -251 -326
-354 -143 -216 -226 -454 -246 -713 -28 -364 79 -733 299 -1029 l24 -33 -546
-547 c-551 -551 -578 -581 -578 -649 0 -43 38 -110 76 -134 42 -26 107 -28
154 -6 20 10 269 251 579 561 l543 544 95 -64 c178 -121 370 -201 578 -240
149 -28 423 -26 565 5 148 31 265 73 391 137 415 212 701 593 796 1059 27 135
24 433 -5 571 -69 321 -217 586 -449 804 -212 199 -501 341 -778 384 -128 20
-263 25 -387 15z m324 -346 c25 -12 52 -31 58 -44 7 -12 13 -62 14 -111 1 -85
0 -91 -25 -112 -15 -13 -62 -36 -105 -51 -121 -42 -244 -96 -295 -127 -25 -15
-54 -28 -64 -28 -10 0 -61 14 -114 31 -75 24 -121 32 -215 38 -150 8 -149 6
-116 136 24 95 25 96 73 127 26 17 87 48 136 69 175 75 296 99 476 96 107 -3
138 -7 177 -24z m311 -80 c211 -100 435 -304 522 -477 19 -39 25 -65 25 -118
0 -37 -3 -68 -6 -68 -4 0 -21 9 -38 19 -51 31 -131 50 -244 57 -124 8 -109 -1
-245 166 -43 53 -110 122 -150 155 -39 32 -74 61 -77 65 -4 5 -5 195 -1 232 1
4 34 6 74 4 55 -3 88 -11 140 -35z m-916 -363 c107 -25 148 -43 167 -72 9 -14
21 -80 30 -168 9 -80 24 -183 35 -230 11 -52 16 -92 11 -105 -5 -11 -48 -58
-96 -105 -48 -47 -129 -133 -181 -191 -51 -59 -100 -110 -109 -113 -15 -6
-362 77 -395 94 -39 21 -82 203 -95 406 -8 117 -10 111 92 244 114 149 183
220 239 247 45 22 59 23 135 18 47 -3 122 -15 167 -25z m1360 -269 c57 -25
120 -87 151 -148 11 -21 35 -83 53 -138 29 -88 33 -113 33 -205 0 -58 -6 -125
-13 -150 -33 -114 -156 -311 -207 -330 -17 -7 -77 -6 -181 3 -142 12 -158 15
-174 36 -11 13 -19 39 -19 60 0 86 -57 259 -130 399 -38 72 -38 72 35 182 24
36 67 114 96 174 69 141 80 148 209 143 71 -2 108 -9 147 -26z m-2037 -106 c7
-8 21 -90 31 -182 12 -106 29 -201 46 -256 24 -79 25 -93 15 -130 -7 -23 -22
-82 -33 -132 -30 -128 -28 -125 -50 -75 -48 106 -89 314 -89 445 0 114 40 345
60 345 4 0 13 -7 20 -15z m1235 -261 c121 -20 230 -40 241 -45 28 -10 113
-176 149 -289 18 -55 29 -117 32 -175 l5 -90 -74 -85 c-41 -47 -123 -132 -182
-189 l-108 -104 -81 7 c-178 15 -418 79 -469 126 -21 19 -47 77 -103 230 -41
112 -75 217 -75 232 0 34 80 134 233 290 119 122 144 140 187 133 14 -3 124
-21 245 -41z m970 -483 c-32 -91 -168 -330 -152 -266 3 11 8 42 12 69 5 39 18
63 59 115 29 36 61 80 71 98 25 42 29 36 10 -16z m-1425 -406 c51 -26 202 -66
347 -90 78 -13 150 -28 160 -34 22 -12 145 -189 135 -195 -4 -2 -45 -12 -92
-22 -193 -41 -465 -15 -658 62 -86 35 -232 112 -232 123 0 3 25 19 55 35 30
15 90 52 132 82 83 57 107 63 153 39z"/>
</g>
</svg>
