<?xml version="1.0" standalone="no"?>
<!DOCTYPE svg PUBLIC "-//W3C//DTD SVG 20010904//EN"
 "http://www.w3.org/TR/2001/REC-SVG-20010904/DTD/svg10.dtd">
<svg version="1.0" xmlns="http://www.w3.org/2000/svg"
 width="500.000000pt" height="500.000000pt" viewBox="0 0 500.000000 500.000000"
 preserveAspectRatio="xMidYMid meet">

<g transform="translate(0.000000,500.000000) scale(0.100000,-0.100000)"
fill="#000000" stroke="none">
<path d="M2697 4349 c-325 -34 -649 -191 -887 -429 -356 -355 -509 -836 -425
-1327 38 -220 139 -457 268 -632 l39 -53 -550 -552 c-303 -303 -556 -564 -561
-579 -48 -126 66 -254 191 -218 37 11 116 85 593 562 303 302 553 549 557 549
3 0 50 -30 105 -66 257 -172 527 -254 838 -254 238 0 436 43 640 139 465 220
780 644 855 1154 15 101 15 298 0 407 -47 353 -221 683 -483 919 -326 292
-742 426 -1180 380z m288 -330 c110 -20 128 -40 140 -156 7 -68 -10 -124 -42
-141 -10 -5 -65 -26 -123 -46 -58 -21 -156 -62 -218 -93 l-112 -57 -93 31
c-93 32 -267 58 -311 47 -24 -6 -56 17 -56 39 0 14 47 188 52 191 72 51 238
125 349 156 134 36 309 49 414 29z m387 -106 c127 -61 232 -135 328 -232 89
-90 179 -212 198 -270 11 -31 17 -151 8 -151 -2 0 -24 11 -49 25 -56 32 -160
54 -252 55 -38 0 -80 6 -92 13 -11 7 -57 57 -100 112 -79 99 -153 174 -225
229 l-38 28 0 113 c0 61 3 115 8 119 4 4 34 6 68 4 45 -3 82 -14 146 -45z
m-957 -349 c111 -21 187 -53 201 -84 7 -14 17 -79 23 -146 7 -66 21 -163 31
-215 11 -52 20 -105 20 -117 0 -17 -25 -48 -86 -105 -47 -44 -131 -134 -186
-199 -86 -100 -105 -118 -130 -118 -42 0 -349 78 -376 96 -40 26 -67 123 -87
314 -22 199 -24 185 51 286 150 201 232 284 300 303 36 11 135 4 239 -15z
m1345 -260 c90 -25 148 -75 195 -169 88 -176 111 -356 66 -503 -28 -89 -89
-198 -150 -264 -48 -52 -49 -53 -102 -51 -173 9 -281 21 -294 34 -8 8 -20 50
-26 94 -14 106 -50 215 -109 336 -56 115 -56 109 15 215 26 38 68 114 95 169
45 95 76 135 110 148 31 11 146 6 200 -9z m-1991 -127 c6 -8 18 -74 26 -148
20 -172 30 -229 56 -307 l21 -63 -26 -92 c-14 -51 -29 -111 -32 -135 -4 -23
-10 -45 -14 -47 -5 -3 -20 28 -34 68 -76 211 -90 448 -41 665 17 73 24 83 44
59z m1245 -257 c125 -22 235 -45 242 -51 42 -35 134 -245 158 -361 26 -128 23
-168 -22 -225 -61 -76 -314 -323 -339 -329 -28 -7 -224 21 -327 47 -99 25
-200 65 -219 87 -8 9 -49 112 -92 229 -55 149 -76 220 -71 237 9 35 89 130
235 279 120 121 128 127 166 127 22 0 143 -18 269 -40z m939 -527 c-33 -76
-112 -217 -119 -210 -3 3 -2 28 2 56 5 40 16 63 55 111 26 33 56 73 65 90 29
48 27 27 -3 -47z m-1384 -368 c78 -32 233 -70 371 -90 63 -9 111 -22 122 -32
10 -9 44 -53 77 -99 l60 -84 -37 -9 c-196 -51 -460 -41 -657 24 -66 22 -228
98 -266 126 l-31 21 71 39 c39 21 100 59 137 84 36 25 72 45 78 45 7 0 41 -11
75 -25z"/>
</g>
</svg>
