<?xml version="1.0" standalone="no"?>
<!DOCTYPE svg PUBLIC "-//W3C//DTD SVG 20010904//EN"
 "http://www.w3.org/TR/2001/REC-SVG-20010904/DTD/svg10.dtd">
<svg version="1.0" xmlns="http://www.w3.org/2000/svg"
 width="500.000000pt" height="500.000000pt" viewBox="0 0 500.000000 500.000000"
 preserveAspectRatio="xMidYMid meet">

<g transform="translate(0.000000,500.000000) scale(0.100000,-0.100000)"
fill="#000000" stroke="none">
<path d="M465 2933 c-115 -42 -199 -128 -235 -242 -25 -80 -25 -142 0 -222 50
-157 187 -259 349 -259 78 0 153 20 203 54 l36 24 138 -139 c76 -77 146 -139
154 -139 22 0 40 20 40 44 0 13 -50 71 -135 156 l-136 136 30 54 c103 188 28
419 -167 515 -75 37 -200 45 -277 18z m238 -89 c20 -10 38 -25 39 -33 0 -9 2
-22 2 -28 1 -7 11 -19 23 -28 11 -8 35 -36 52 -62 17 -25 31 -40 31 -32 0 12
2 11 10 -1 14 -21 12 -130 -2 -171 -12 -34 -12 -34 -19 -9 -4 14 -7 40 -8 59
-1 30 -3 33 -13 19 -7 -9 -33 -22 -56 -28 -38 -10 -47 -9 -65 7 -22 18 -22 18
-4 -3 17 -21 17 -23 -3 -78 -12 -30 -29 -61 -38 -67 -16 -10 -16 -10 0 -5 22
7 90 -32 82 -46 -4 -6 -25 -19 -48 -29 -43 -20 -150 -26 -175 -10 -22 14 14
59 52 64 l32 4 -35 1 c-27 2 -45 11 -72 40 -21 20 -41 48 -47 62 -6 16 -10 19
-10 9 -1 -24 -75 -30 -97 -9 -15 14 -15 13 -5 -7 6 -12 11 -25 11 -30 -1 -11
-20 24 -25 45 -3 9 -10 36 -16 59 -9 36 -9 51 6 90 14 42 21 68 24 95 4 29
108 116 159 132 19 6 22 4 22 -21 0 -38 -82 -120 -125 -126 l-30 -4 32 -2 c29
-1 36 -7 59 -52 21 -43 24 -56 15 -76 -17 -38 -13 -41 8 -6 18 28 26 32 86 38
64 7 68 6 98 -21 l32 -29 -32 35 c-31 35 -31 36 -21 95 6 33 16 63 22 67 7 5
6 8 -4 8 -8 0 -40 10 -72 22 -50 20 -58 27 -58 49 0 14 3 29 8 33 12 14 135 0
175 -20z m117 -437 c0 -2 -15 -16 -32 -33 l-33 -29 29 33 c28 30 36 37 36 29z"/>
<path d="M678 2763 c7 -3 16 -2 19 1 4 3 -2 6 -13 5 -11 0 -14 -3 -6 -6z"/>
<path d="M832 2610 c0 -19 2 -27 5 -17 2 9 2 25 0 35 -3 9 -5 1 -5 -18z"/>
<path d="M441 2514 c0 -11 3 -14 6 -6 3 7 2 16 -1 19 -3 4 -6 -2 -5 -13z"/>
<path d="M608 2373 c7 -3 16 -2 19 1 4 3 -2 6 -13 5 -11 0 -14 -3 -6 -6z"/>
<path d="M1290 2733 c-55 -28 -83 -78 -77 -137 6 -67 50 -109 133 -126 87 -18
143 -39 154 -60 19 -36 11 -80 -19 -111 -25 -25 -37 -29 -83 -29 -85 0 -148
55 -148 130 0 16 -7 20 -30 20 -27 0 -30 -3 -30 -32 1 -53 34 -114 79 -143 79
-53 212 -42 271 20 31 33 40 127 16 173 -20 40 -56 58 -148 77 -83 18 -115 35
-128 71 -29 75 74 134 168 95 34 -14 62 -55 62 -91 0 -16 6 -20 30 -20 27 0
30 3 30 34 0 37 -31 89 -73 120 -40 29 -158 34 -207 9z"/>
<path d="M3642 2738 c-15 -15 -16 -60 0 -76 18 -18 53 -14 73 8 27 30 10 74
-30 78 -17 2 -36 -3 -43 -10z"/>
<path d="M3160 2665 l0 -75 -60 0 c-57 0 -60 -1 -60 -25 0 -24 3 -25 60 -25
l60 0 0 -144 c0 -177 0 -176 106 -176 72 0 74 1 74 25 0 24 -3 25 -55 25 -72
0 -76 10 -73 152 l3 113 73 3 c69 3 72 4 72 27 0 23 -3 24 -72 27 l-73 3 -3
73 c-3 69 -4 72 -27 72 -24 0 -25 -2 -25 -75z"/>
<path d="M4090 2721 c-5 -11 -10 -45 -10 -75 l0 -56 -60 0 c-57 0 -60 -1 -60
-25 0 -24 3 -25 60 -25 l60 0 0 -160 0 -160 30 0 30 0 0 160 0 160 75 0 c73 0
75 1 75 25 0 24 -2 25 -75 25 l-75 0 0 50 0 50 70 0 c68 0 70 1 70 25 0 25 -1
25 -90 25 -78 0 -91 -2 -100 -19z"/>
<path d="M1764 2581 c-60 -27 -96 -80 -102 -146 -6 -76 4 -120 39 -160 58 -66
183 -85 247 -38 35 26 74 83 70 102 -4 23 -58 28 -58 6 0 -9 -13 -30 -29 -46
-24 -24 -38 -29 -76 -29 -88 0 -135 47 -135 135 0 25 7 59 14 74 45 86 187 86
219 0 12 -29 30 -36 56 -20 31 20 -32 108 -92 130 -43 16 -107 13 -153 -8z"/>
<path d="M2212 2579 c-77 -38 -115 -128 -93 -221 15 -66 41 -102 94 -127 96
-46 205 -11 254 82 8 16 14 55 14 92 0 70 -14 105 -58 147 -55 53 -138 63
-211 27z m131 -43 c43 -18 67 -47 77 -93 13 -55 -3 -113 -40 -145 -42 -39
-115 -39 -159 -2 -78 65 -59 200 33 240 40 17 50 17 89 0z"/>
<path d="M2590 2458 c0 -112 3 -138 20 -174 44 -91 167 -100 229 -17 l20 28 1
-37 c0 -35 2 -38 30 -38 l30 0 0 185 0 185 -30 0 -30 0 0 -115 c0 -121 -8
-152 -48 -188 -23 -21 -88 -25 -121 -8 -34 18 -41 52 -41 187 l0 124 -30 0
-30 0 0 -132z"/>
<path d="M3530 2565 c0 -24 3 -25 60 -25 l60 0 0 -135 0 -135 -65 0 c-63 0
-65 -1 -65 -25 l0 -25 155 0 155 0 0 25 c0 24 -3 25 -60 25 l-60 0 0 160 0
160 -90 0 c-89 0 -90 0 -90 -25z"/>
<path d="M4430 2452 c0 -157 12 -194 71 -224 64 -33 122 -21 171 36 l27 31 1
-76 c0 -45 -5 -80 -12 -87 -8 -8 -46 -12 -105 -12 -93 0 -93 0 -93 -25 l0 -25
113 0 c82 0 119 4 133 14 18 13 19 30 22 260 l3 246 -31 0 -30 0 -1 -107 c0
-122 -12 -167 -50 -196 -40 -29 -108 -26 -136 8 -21 24 -23 36 -23 161 l0 134
-30 0 -30 0 0 -138z"/>
</g>
</svg>
