<?xml version="1.0" standalone="no"?>
<!DOCTYPE svg PUBLIC "-//W3C//DTD SVG 20010904//EN"
 "http://www.w3.org/TR/2001/REC-SVG-20010904/DTD/svg10.dtd">
<svg version="1.0" xmlns="http://www.w3.org/2000/svg"
 width="500.000000pt" height="500.000000pt" viewBox="0 0 500.000000 500.000000"
 preserveAspectRatio="xMidYMid meet">

<g transform="translate(0.000000,500.000000) scale(0.100000,-0.100000)"
fill="#000000" stroke="none">
<path d="M2726 4349 c-181 -16 -347 -64 -531 -154 -295 -145 -546 -400 -684
-696 -140 -299 -181 -635 -116 -949 39 -190 132 -406 242 -564 l55 -79 -550
-551 c-472 -472 -552 -557 -562 -593 -22 -73 10 -157 72 -189 41 -21 114 -22
154 -1 16 9 274 261 573 560 l543 544 102 -68 c181 -121 361 -196 569 -236
127 -25 415 -25 544 0 716 134 1233 751 1233 1470 0 418 -149 779 -444 1072
-257 256 -555 397 -918 435 -104 11 -153 11 -282 -1z m326 -346 c25 -12 52
-31 58 -44 7 -12 13 -62 14 -110 1 -77 -2 -91 -20 -109 -11 -12 -79 -43 -151
-70 -128 -47 -233 -95 -276 -125 -30 -21 -47 -19 -156 16 -76 25 -120 32 -209
37 -153 7 -160 14 -122 134 11 34 20 71 20 80 0 23 117 91 237 138 84 32 144
48 283 74 14 2 81 3 150 2 102 -2 134 -6 172 -23z m311 -81 c165 -75 337 -216
450 -367 81 -108 97 -145 97 -227 0 -38 -3 -68 -7 -68 -5 0 -17 7 -28 16 -37
28 -145 53 -253 60 l-107 7 -32 36 c-18 20 -66 77 -107 128 -42 51 -111 121
-153 156 l-78 65 2 108 c1 60 2 113 2 118 1 5 34 6 74 4 52 -4 91 -14 140 -36z
m-1002 -347 c127 -19 227 -53 251 -85 13 -18 21 -59 29 -149 6 -68 21 -172 33
-231 12 -59 19 -116 15 -127 -4 -10 -39 -48 -79 -83 -40 -35 -121 -121 -181
-191 -60 -70 -116 -129 -123 -132 -25 -10 -398 89 -413 109 -33 45 -68 218
-79 389 l-7 111 91 119 c128 170 184 229 244 259 60 30 87 31 219 11z m1451
-288 c106 -52 164 -147 218 -357 46 -177 4 -348 -130 -531 -65 -90 -69 -91
-254 -76 -114 10 -160 17 -172 28 -8 9 -19 47 -25 85 -16 113 -47 213 -105
331 -30 61 -54 115 -54 120 0 5 23 45 51 88 28 44 75 128 104 186 32 63 67
117 86 134 32 26 36 27 129 23 79 -3 105 -8 152 -31z m-2043 -101 c7 -8 21
-90 32 -183 10 -92 30 -208 44 -257 l26 -89 -32 -131 c-17 -72 -34 -138 -36
-146 -7 -23 -60 122 -82 225 -39 179 -37 363 6 532 16 65 22 73 42 49z m1231
-261 c118 -20 227 -40 242 -46 20 -8 39 -35 72 -98 69 -134 108 -259 113 -366
l5 -90 -89 -100 c-49 -55 -132 -140 -184 -188 l-94 -89 -78 6 c-171 14 -434
85 -475 129 -25 27 -172 420 -172 459 0 34 67 116 234 286 127 130 146 144
186 137 14 -3 122 -21 240 -40z m970 -496 c-30 -75 -110 -226 -130 -244 -16
-14 -16 -11 -7 47 7 51 16 70 49 107 22 25 54 69 71 97 18 29 33 51 35 49 1
-1 -7 -27 -18 -56z m-1352 -418 c72 -25 176 -50 269 -65 84 -14 161 -30 172
-35 10 -6 30 -28 42 -48 13 -21 40 -61 61 -90 l38 -52 -33 -10 c-17 -5 -59
-14 -92 -20 -222 -36 -432 -13 -643 70 -77 30 -222 108 -222 118 0 3 24 18 53
33 28 16 88 52 132 82 44 30 86 55 93 55 7 1 66 -17 130 -38z"/>
</g>
</svg>
